<?xml version="1.0" encoding="UTF-8" standalone="no"?><!DOCTYPE svg PUBLIC "-//W3C//DTD SVG 1.1//EN"
        "http://www.w3.org/Graphics/SVG/1.1/DTD/svg11.dtd">
<svg width="100%" height="100%" viewBox="0 0 800 800" version="1.1" xmlns="http://www.w3.org/2000/svg"
     xml:space="preserve"
     style="fill-rule:evenodd;clip-rule:evenodd;stroke-linecap:round;stroke-linejoin:round;stroke-miterlimit:1.5;">
    <circle cx="400" cy="166.9" r="45" style="fill:none;stroke:#c7c7c7;stroke-width:40px;"/>
    <text x="213.149px" y="621.576px"
          style="font-family:'Arial-BoldMT', 'Arial', sans-serif;font-weight:700;font-size:250px;fill:#c7c7c7">KG</text>
    <path d="M262.104,207.892c4.467,7.731 4.274,17.302 -0.501,24.846c-4.775,7.544 -13.343,11.815 -22.241,11.086c-13.847,-1.093 -28.529,-2.295 -42.466,-3.436c-37.324,-3.056 -70.877,22.705 -77.566,59.552c-19.106,105.249 -56.611,311.849 -75.638,416.663c-2.887,15.905 1.432,32.271 11.791,44.68c10.359,12.409 25.691,19.582 41.855,19.583c140.809,0.002 471.253,0.009 607.867,0.011c15.192,0 29.623,-6.645 39.498,-18.188c9.875,-11.544 14.207,-26.829 11.855,-41.838c-15.803,-100.84 -47.61,-303.81 -64.563,-411.995c-6.306,-40.236 -42.956,-68.529 -83.477,-64.443c-14.357,1.448 -29.261,2.951 -43.08,4.345c-9.684,0.976 -19.15,-3.31 -24.806,-11.231c-5.656,-7.922 -6.635,-18.267 -2.566,-27.109c11.757,-25.438 15.211,-56.007 2.353,-96.647c-25.589,-54.678 -66.412,-91.616 -136.349,-94.648c-74.036,6.247 -115.093,40.874 -142.209,87.496c-16.455,44.98 -14.116,76.477 0.243,101.273Z"
          style="fill:none;stroke:#c7c7c7;stroke-width:40px;"/></svg>