<?xml version="1.0" encoding="UTF-8" standalone="no"?><!DOCTYPE svg PUBLIC "-//W3C//DTD SVG 1.1//EN" "http://www.w3.org/Graphics/SVG/1.1/DTD/svg11.dtd"><svg width="100%" height="100%" viewBox="0 0 800 800" version="1.1" xmlns="http://www.w3.org/2000/svg" xmlns:xlink="http://www.w3.org/1999/xlink" xml:space="preserve" xmlns:serif="http://www.serif.com/" style="fill-rule:evenodd;clip-rule:evenodd;stroke-linecap:round;stroke-linejoin:round;stroke-miterlimit:1.5;"><circle cx="400" cy="166.9" r="72.5" style="fill:none;stroke:#000;stroke-width:38px;"/><path d="M262.104,207.892c4.467,7.731 4.274,17.302 -0.501,24.846c-4.775,7.544 -13.343,11.815 -22.241,11.086c-13.847,-1.093 -28.529,-2.295 -42.466,-3.436c-37.324,-3.056 -70.877,22.705 -77.566,59.552c-19.106,105.249 -56.611,311.849 -75.638,416.663c-2.887,15.905 1.432,32.271 11.791,44.68c10.359,12.409 25.691,19.582 41.855,19.583c140.809,0.002 471.253,0.009 607.867,0.011c15.192,0 29.623,-6.645 39.498,-18.188c9.875,-11.544 14.207,-26.829 11.855,-41.838c-15.803,-100.84 -47.61,-303.81 -64.563,-411.995c-6.306,-40.236 -42.956,-68.529 -83.477,-64.443c-14.357,1.448 -29.261,2.951 -43.08,4.345c-9.684,0.976 -19.15,-3.31 -24.806,-11.231c-5.656,-7.922 -6.635,-18.267 -2.566,-27.109c11.757,-25.438 15.211,-56.007 2.353,-96.647c-25.589,-54.678 -66.412,-91.616 -136.349,-94.648c-74.036,6.247 -115.093,40.874 -142.209,87.496c-16.455,44.98 -14.116,76.477 0.243,101.273Z" style="fill:none;stroke:#000;stroke-width:38px;"/><path d="M145.333,419.495c1.165,-4.702 34.796,-12.9 39.507,-14.374c19.248,-6.023 49.238,-24.541 66.307,-35.543c11.062,-7.13 24.802,-11.2 36.629,-17.131c9.629,-4.829 18.813,-9.689 28.887,-13.51c3.267,-1.239 9.461,-1.107 9.417,-4.6c-0.024,-1.889 -23.089,0.805 -34.665,3.205c-28.088,5.823 -55.464,13.294 -83.84,18.037c-16.88,2.821 -19.731,11.194 -41.069,7.893c-0.52,-0.081 -0.276,-1.575 -0.276,-1.926c-0,-8.053 2.148,-12.114 7.721,-18.432c21.702,-24.598 19.637,-25.726 31.547,-56.079c0.816,-2.079 -3.737,-15.957 -5.631,-16.904c-8.376,-4.188 -27.258,1.792 -34.197,6.215c-2.865,1.826 -9.198,1.32 -11.073,5.4c-2.388,5.193 -7.017,9.294 -8.994,14.426c-0.645,1.675 -0.926,6.494 -1.696,7.526c-9.639,12.936 -24.862,20.538 -29.806,37.221c-1.927,6.503 -1.699,20.015 -0.241,27.093c0.945,4.594 3.664,8.552 5.869,12.616c2.466,4.544 3.752,12.875 8.469,16.02c2.628,1.752 8.917,-4.775 9.928,-5.551c6.454,-4.956 14.452,-9.071 21.294,-13.447c4.278,-2.736 17.044,7.068 20.82,3.243c1.2,-1.215 -8.153,-4.996 -10.403,-5.747c-11.526,-3.847 -19.32,-0.294 -19.32,-13.415c0,-20.083 2.413,-43.322 14.37,-60.462c3.335,-4.779 17.747,-12.148 17.747,-16.443c0,-1.284 0.486,2.621 1.273,3.635c1.954,2.522 7.855,7.215 10.385,7.96c11.231,3.303 22.683,1.976 34.231,2.282c15.529,0.412 30.897,1.252 46.33,1.252c4.667,-0 13.175,-2.243 17.873,-1.182c15.617,3.526 31.922,6.449 47.672,9.599c12.581,2.516 25.31,4.646 38.118,5.582l6.436,0c2.193,0 4.388,0.113 6.578,0c0.164,-0.008 3.22,-0.814 2.678,-1.356c-1.568,-1.568 -13.628,-2.241 -14.643,-2.269c-9.312,-0.257 -18.635,-0.257 -27.947,0c-26.982,0.745 -62.704,6.727 -89.076,12.86c-3.103,0.722 -35.453,13.464 -37.899,11.018c-8.718,-8.718 -3.254,-45.324 -0.734,-58.078c1.006,-5.089 -2.448,-17.997 3.562,-20.026c3.681,-1.243 24.298,5.985 26.849,11.088c1.865,3.73 -7.842,7.387 -6.613,7.379c3.688,-0.024 9.006,-5.373 13.112,-6.278c12.664,-2.791 38.673,-6.112 45.567,-20.078c2.164,-4.382 -13.468,-6.425 -15.565,-8.536c-0.324,-0.326 0.183,-1.658 0.272,-1.93c2.298,-6.952 -1.045,-15.423 -1.045,-22.403c0,-9.717 -0.845,-16.451 1.329,-26.101c0.251,-1.116 1.488,-2.61 0.636,-3.373c-9.605,-8.602 -9.235,-9.44 -9.235,-22.431c-0,-4.479 -3.147,-10.249 -0,-13.437c4.668,-4.728 5.97,-13.56 5.97,-20.274c-0,-3.546 -2.492,-8.116 -0,-10.64c6.421,-6.503 16.325,-10.754 23.927,-16.272c7.695,-5.585 13.605,-15.103 20.627,-21.745c0.039,-0.037 -1.62,1.085 -2.307,1.489c-2.358,1.384 -3.838,1.375 -6.303,2.307c-8.231,3.113 -13.937,7.37 -22.245,8.459c-0.451,0.059 4.094,-2.636 7.152,-3.814c4.904,-1.888 9.298,-4.563 13.912,-7.075c13.371,-7.276 20.332,-17.974 33.945,-24.43c4.732,-2.244 7.943,-8.517 12.832,-9.508c14.756,-2.989 37.981,-0.409 53.076,-0.409c6.62,0 20.856,-4.553 24.591,-0.818c7.946,7.946 17.521,13.407 28.136,18.607c6.084,2.981 13.688,21.611 9.724,25.525c-1.467,1.448 -7.684,-1.087 -8.917,-1.318c-10.358,-1.941 -19.359,-5.411 -29.96,-6.691c-4.882,-0.589 -9.434,-1.962 -14.23,-2.761c-20.126,-3.354 -42.209,-8.688 -62.549,-3.636c-6.944,1.725 -8.659,6.478 -14.444,8.446c-5.593,1.903 -11.574,2.36 -16.67,5.729c-2.087,1.379 -8.726,5.73 -8.931,7.029c-0.829,5.244 1.644,11.78 -3.967,15.363c-11.455,7.315 -27.229,12.843 -37.647,21.914c-3.573,3.11 0.683,10.163 -0.287,10.151c-0.129,-0.002 0.166,-0.204 0.273,-0.277c2.791,-1.884 6.268,-2.474 9.525,-2.474c4.684,-0 6.816,0.108 11.668,-0.402c1.094,-0.116 6.994,-3.409 7.243,-3.16c0.182,0.182 -0.342,0.391 -0.549,0.545c-2.273,1.694 -3.498,2.84 -4.925,5.691c-2.755,5.506 -1.891,10.099 -1.891,16.062c-0,20.231 1.323,40.493 2.702,60.825c0.414,6.107 6.425,13.88 9.48,17.953c12.595,16.794 37.741,21.066 57.34,21.991c20.909,0.986 41.6,3.055 62.574,1.181c1.371,-0.122 5.618,-8.118 10.434,-9.151c14.71,-3.156 23.124,-8.966 34.102,-18.827c2.353,-2.114 -0.954,-6.278 -0.954,-9.441c-0,-10.945 -2.597,-21.268 -4.744,-32.107c-2.597,-13.117 7.456,-10.654 8.764,-25.514c1.209,-13.736 -8.579,-20.169 -8.83,-24.21c-0.476,-7.656 -3.643,-25.494 -2.125,-31.603c0.636,-2.562 4.233,-3.163 6.456,-4.586c4.719,-3.021 8.689,-4.595 13.961,-6.442c16.99,-5.951 16.487,2.397 18.069,20.316c1.199,13.594 -24.04,49.94 3.198,54.974c6.33,1.17 8.407,-26.522 2.192,-26.601c-2.939,-0.037 -1.578,5.686 -2.786,8.365c-3.563,7.902 -15.768,14.028 -13.119,24.08c1.536,5.829 6.215,35.226 17.6,29.461c0.659,-0.334 -1.612,-0.18 -2.199,0.269c-1.581,1.21 -4.448,1.779 -4.642,3.761c-0.463,4.731 -0.055,9.197 -0.779,13.93c-1.794,11.717 1.387,12.373 -4.66,22.756c-0.888,1.524 -1.339,3.59 -2.887,4.435c-11.95,6.528 -23.853,9.321 -36.794,13.102c-3.618,1.057 -15.192,3.179 -17.743,5.697c-5.622,5.551 -19.255,11.921 -26.933,16.164c-5.448,3.01 -12.455,-0.267 -18.673,-0c-23.838,1.021 -47.26,3.397 -70.939,3.397c-14.692,0 -26.329,-0.104 -41.266,-4.211c-5.842,-1.606 -13.952,-2.731 -18.567,-7.345c-0.875,-0.875 -4.334,-0.079 -4.341,-1.779c-0.005,-1.254 11.134,-3.862 19.865,-5.142c15.758,-2.31 32.098,-3.929 48.193,-3.929c4.439,0 12.466,-4.313 15.849,-2.622c11.944,5.973 8.995,8.955 17.785,18.803c7.274,8.149 19.361,14.209 28.698,19.1c10.901,5.71 19.196,10.141 30.911,14.286c12.788,4.524 29.17,10.283 42.841,12.416c24.319,3.793 46.264,-5.613 69.904,-9.347c9.341,-1.476 19.588,-1.103 28.999,-2.143c7.04,-0.778 13.426,-6.271 20.015,-7.785c1.12,-0.257 1.195,-8.826 1.195,-13.992c0,-5.063 2.171,-20.939 -2.604,-23.878c-4.325,-2.662 -8.412,-1.896 -13.328,-2.202c-5.705,-0.356 -11.369,-3.84 -16.779,-5.474c-9.594,-2.899 -21.538,2.306 -31.452,2.946c-6.764,0.437 -8.596,-1.735 -14.014,-1.758c-1.754,-0.007 -20.457,7.483 -22.05,8.508c-1.914,1.232 -1.954,4.651 -4.67,5.799c-10.101,4.272 -15.971,2.134 -25.094,8.127c-4.398,2.89 -10.647,3.692 -15.433,6.079c-2.194,1.095 -4.082,2.909 -6.474,3.552c-0.62,0.166 -1.918,0.642 -1.926,-0c-0.04,-3.155 6.252,-0.888 9.396,-1.15c13.479,-1.126 26.842,1.295 40.384,0.157c11.44,-0.962 24.7,2.673 35.955,0.342c20.448,-4.233 40.884,-4.205 60.536,-11.112c4.174,-1.467 9.645,2.151 14.115,0.095c7.804,-3.59 -11.413,-3.445 -12.976,-7.795c-0.944,-2.629 6.042,1 8.361,-0.556c4.334,-2.908 13.697,-7.947 18.565,-9.574c3.401,-1.137 9.122,-0.197 12.402,0.36c20.257,3.439 19.304,6.072 32.991,21.088c1.934,2.122 1.982,11.039 2.37,14.388c0.293,2.526 4.243,8.832 5.369,11.566c3.894,9.458 9.174,16.926 11.354,26.577c1.465,6.491 0.168,14.904 0.867,21.469c0.638,6.005 0.553,14.375 -0.804,20.229c-0.05,0.213 -2.292,6.818 -2.056,7.253c4.02,7.407 4.962,42.046 5.785,51.818c0.054,0.639 -2.489,7.161 -3.579,3.904c-2.067,-6.173 -0.84,-14.125 -2.43,-20.452c-2.189,-8.714 -4.266,-12.573 -5.155,-21.529c-1.337,-13.456 -11.806,-22.823 -17.019,-33.25c-2.296,-4.591 0.442,-9.154 -1.022,-13.527c-5.157,-15.405 0.761,-21.866 -10.392,-36.79c-5.314,-7.111 -8.316,-16.835 -14.416,-22.935c-1.788,-1.788 0.461,-10.965 -4.477,-10.986c-1.238,-0.005 3.481,9.348 3.481,15.185c0,24.128 -5.989,25.797 7.365,46.137c7.275,11.08 7.079,25.95 7.079,39.007c-0,5.5 -1.732,15.575 1.143,20.256c5.198,8.467 16.572,17.191 20.326,24.699c0.881,1.761 -0.678,7.565 -0.678,9.435c0,1.567 -2.123,1.588 -2.199,2.726c-0.123,1.859 1.032,5.435 -0.828,5.527c-15.602,0.772 -7.825,-9.343 -13.154,-19.26c-5.908,-10.995 -8.4,-20.603 -11.098,-33.446c-0.353,-1.68 1.219,-3.595 0.451,-5.131c-1.604,-3.209 -4.605,-4.782 -6.17,-8.246c-4.657,-10.31 -5.405,-23.016 -10.626,-32.935c-2.63,-4.996 -9.4,-7.704 -11.294,-12.475c-0.228,-0.575 -4.51,-16.055 -5.635,-14.944c-3.665,3.618 -17.827,4.408 -18.254,8.341c-1.114,10.269 -1.393,22.047 0.395,32.183c1.076,6.094 19.007,20.858 24.392,26.678c1.939,2.095 -0.223,4.665 0.944,6.746c4.57,8.149 10.055,15.192 14.58,23.466c2.077,3.797 18.393,18.398 16.999,22.528c-1.503,4.452 -21.409,5.391 -23.529,5.233c-13.634,-1.019 -4.205,-10.329 -11.409,-20.169c-14.805,-20.222 -9.721,-26.092 -12.916,-49.451c-0.419,-3.066 -13.707,-30.563 -14.597,-32.04c-2.821,-4.678 -18.621,-5.693 -23.253,-7.474c-3.037,-1.168 -6.636,-6.176 -8.952,-3.89c-5.556,5.486 4.319,32.412 6.775,38c8.546,19.448 19.176,18.249 23.325,25.304c2.929,4.979 0.464,9.748 3.887,15.153c1.581,2.495 13.696,13.939 8.68,18.404c-4.16,3.702 -5.935,5.882 -8.76,11.528c-2.206,4.411 -3.211,4.705 -3.211,7.979c0,4.081 -6.908,2.531 -9.513,5.405c-0.556,0.614 -2.458,3.969 -3.988,4.475c-3.34,1.103 -3.759,-2.872 -5.338,-4.45c-8.691,-8.691 -8.861,-17.716 -8.144,-29.391c0.919,-14.988 13.484,-10.669 12.566,-25.699c-1.171,-19.164 -16.841,-8.999 -21.973,-19.264c-4.174,-8.348 2.146,-24.658 -6.708,-31.313c-4.688,-3.523 -16.25,-16.296 -18.425,-16.296c-0.465,0 -0.995,-0.102 -1.374,0.273c-3.225,3.198 8.023,11.479 10.085,13.814c10.614,12.02 34.871,32.502 39.332,47.781c1.825,6.25 -0.14,14.938 -3.422,20.113c-3.94,6.211 -11.555,8.75 -16.059,14.066c-4.658,5.499 -5.063,13.52 -9.221,18.935c-6.094,7.936 -18.23,22.144 -29.048,22.144c-0.735,0 1.322,-0.661 1.909,-1.104c1.668,-1.262 3.164,-2.484 4.457,-4.094c4.516,-5.625 8.78,-11.64 14.066,-16.572c3.038,-2.835 7.875,-2.654 11.811,-3.988c9.369,-3.177 45.641,-24.425 35.445,-38.416c-2.488,-3.413 -8.314,-1.002 -11.053,-3.537c-15.995,-14.805 -27.385,-4.494 -39.014,9.357c-1.779,2.119 -5.228,3.948 -5.928,6.991c-2.189,9.516 -3.699,25.598 -3.699,34.777c0,4.103 0.399,7.894 0.399,12.074c-0,2.337 -0.971,8.644 0.671,6.98c3.588,-3.634 -1.195,-20.733 -1.671,-25.528c-2.135,-21.506 -8.19,-41.155 -0.035,-62.986c11.63,-31.131 25.571,-21.253 44.761,-46.85c3.355,-4.475 6.599,-22.357 -1.598,-25.101c-5.164,-1.729 -20.492,21.132 -27.992,28.499c-11.725,11.515 -23.732,19.53 -32.156,34.018c-4.862,8.364 -4.167,15.593 -4.715,24.825c-2.367,39.882 1.658,39.437 15.531,73.843c6.068,15.051 -1.808,47.328 22.773,44.369c14.607,-1.758 -3.193,-4.183 -6.519,-7.459c-3.15,-3.104 -1.002,-8.806 -1.002,-13.227c-0,-21.096 -1.137,-42.793 -3.382,-63.752c-0.836,-7.809 -5.758,-15.064 -6.225,-22.703c-1.252,-20.502 3.028,-41.839 4.527,-62.193c0.51,-6.926 6.222,-13.74 5.11,-20.809c-0.693,-4.401 -15.43,-22.19 -19.991,-19.938c-12.044,5.946 -17.691,19.062 -25.182,29.118c-3.283,4.408 -9.187,7.143 -12.237,11.451c-5.525,7.801 -9.994,17.788 -14.357,26.073c-7.068,13.424 6.153,20.372 8.984,30.935c2.344,8.746 1.185,17.849 5.418,26.315c8.223,16.446 26.499,23.597 37.346,44.036c2.158,4.066 6.026,5.286 9.872,7.065c1.857,0.859 7.814,2.108 5.767,2.108c-18.822,-0 -10.79,-12.617 -13.465,-30.118c-2.018,-13.205 -10.364,-53.656 -6.84,-66.527c0.79,-2.886 1.948,-5.661 3.041,-8.446c0.972,-2.475 20.131,-30.613 5.739,-28.68c-16.09,2.162 -29.006,6.203 -42.628,14.601c-5.547,3.42 -14.745,6.336 -13.034,14.346c2.629,12.306 37.483,19.823 46.976,21.672c6.548,1.275 10.885,1.173 17.048,0.248c2.631,-0.395 5.31,-0.478 7.921,-0.992c0.528,-0.105 1.741,-1.074 1.202,-1.081c-4.46,-0.056 -10.619,2.962 -15.747,2.531c-10.981,-0.922 -22.407,-4.595 -33.18,-6.274c-12.65,-1.972 -25.828,-1.031 -38.559,-1.031c-15.412,-0 -25.388,9.427 -25.388,-6.911c0,-1.935 -0.902,-7.424 0,-8.337c3.715,-3.763 46.279,-14.193 54.513,-17.236c3.861,-1.428 14.043,-1.898 11.304,-4.971c-9.09,-10.197 -54.532,-11.972 -66.496,-11.972c-14.46,-0 -29.43,-0.522 -43.795,1.195c-8.528,1.02 -17.753,3.239 -26.464,3.153c-14.758,-0.145 -29.089,-1.713 -43.935,-1.167c-32.859,1.208 -65.995,7.187 -98.829,7.187c-1.359,-0 1.818,-2.179 3.09,-2.657c2.511,-0.945 9.629,-1.575 10.465,-1.632c14.34,-0.987 28.333,-0.494 42.579,-1.206c45.712,-2.288 92.003,-2.899 137.5,-7.257c18.19,-1.742 30.71,-10.421 46.589,-20.103c3.797,-2.315 3.809,-1.6 8.071,-2.615c2.493,-0.593 4.535,-0.679 6.84,-1.457c0.087,-0.029 0.364,-0 0.273,-0c-6.713,-0 -13.751,-6.757 -19.767,-6.338c-12.624,0.881 -26.196,6.539 -38.147,10.13c-16.67,5.01 -33.795,8.481 -50.377,13.678c-6.711,2.104 -14.893,11.154 -21.851,14.143c-12.866,5.528 -25.908,9.251 -38.678,14.786c-7.441,3.226 -16.158,1.89 -24.045,4.608c-13.18,4.539 -26.341,8.714 -39.489,13.37c-5.371,1.902 -14.783,1.243 -14.783,7.396c-0,0.116 -0.087,1.32 -0,1.364c0.506,0.253 8.204,-0.874 9.669,-0.874c14.733,-0 28.244,0.553 43.211,-0.542c17.637,-1.29 35.829,-0.406 53.188,-4.156c11.855,-2.561 23.679,-8.442 35.438,-11.577c11.447,-3.053 23.763,-1.925 35.434,-5.432c4.976,-1.496 9.192,-6.402 14.43,-6.729c9.62,-0.601 19.384,-1.925 28.998,-3.206c4.908,-0.653 13.585,-6.444 17.618,0.13c3.55,5.787 -10.181,11.061 -18.705,14.856c-7.82,3.481 -16.013,5.217 -23.776,8.938c-11.136,5.336 -21.177,14.002 -33.875,16.076c-23.359,3.813 -46.121,8.079 -69.055,13.964c-7.65,1.963 -13.326,8.745 -22.339,9.875c-27.694,3.472 -58.23,2.591 -85.969,0.867c-6.252,-0.389 -14.08,-10.263 -15.971,-10.287c-1.101,-0.014 -3.984,1.706 -5.128,1.852c-4.517,0.576 -17.172,-2.401 -23.12,-2.401c-0.444,-0 -11.017,2.263 -11.161,2.118c-0.495,-0.494 -12.018,-3.786 -13.468,-3.065c-2.959,1.469 -4.145,10.463 -8.064,13.384c-1.047,0.78 -16.461,7.557 -14.559,11.36c2.701,5.403 14.385,0.553 19.071,0.92c17.824,1.394 36.426,-1.144 54.296,0.251c18.549,1.449 35.393,0.63 53.828,-0.569c30.837,-2.007 60.892,0.146 90.09,-8.792c8.789,-2.69 18.68,-0.293 27.517,-0.003c12.814,0.421 36.009,-2.595 48.481,-4.863c17.028,-3.097 35.664,-4.513 52.985,-4.513c6.532,0 13.696,-2.782 19.675,-5.417c1.358,-0.599 -0.118,-4.847 -0.773,-4.855c-0.005,-0.001 1.685,13.15 1.741,13.828c0.549,6.602 0.291,13.257 0,19.875c-0.359,8.163 -4.553,11.618 -6.897,18.701c-0.841,2.543 -1.216,9.796 -1.216,9.145c-0,-1.267 -9.363,-0.185 -9.983,-0.28c-10.551,-1.612 -22,-0.012 -32.411,-2.835c-3.215,-0.871 0.546,-2.64 9.69,-5.079c8.456,-2.255 15.555,-4.027 23.137,-8.183c2.187,-1.198 8.087,-2.235 6.323,-3.999c-2.301,-2.301 -8.667,0.43 -11.028,1c-9.701,2.342 -20.222,3.177 -30.219,3.957c-11.84,0.924 -20.784,5.441 -31.865,8.117c-6.859,1.656 -18.096,-0.64 -24.972,-0.64c-20.178,-0 -40.21,0.937 -60.469,0.937c-14.855,-0 -29.956,-1.986 -44.862,-1.986c-13.837,0 -26.765,0.364 -40.45,1.482c-3.778,0.309 -6.183,2.309 -10.203,2.309c-19.36,-0 -37.887,-1.834 -57.362,-0.089c-11.117,0.996 -29.224,0.091 -40.968,0.091c-0.907,-0 -15.736,0.465 -14.838,1.363c3.967,3.968 2.721,8.409 4.474,10.162c20.806,20.806 72.934,13.036 97.55,11.678c30.586,-1.687 60.938,-1.196 91.45,-3.803c20.578,-1.758 40.576,4.99 60.822,3.974c28.128,-1.41 57.311,-6.908 85.815,-8.945c12.126,-0.866 29.383,6.874 44.033,4.373c14.227,-2.428 29.162,-4.124 43.617,-4.124c4.865,-0 12.875,2.249 17.317,-0c15.503,-7.851 31.254,-3.974 48.196,-5.597c8.729,-0.836 20.693,-2.127 28.915,-3.757c3.04,-0.603 5.546,-4.697 8.477,-4.922c7.111,-0.546 26.441,4.057 31.376,2.391c12.916,-4.361 27.773,-3.598 41.81,-5.202c0.128,-0.014 -0.184,0.182 -0.276,0.273c-1.908,1.884 -2.57,6.219 -2.57,8.928c0,4.473 4.294,12.236 0.483,15.999c-11.122,10.981 -32.942,8.026 -47.805,7.295c-32.221,-1.584 -66.631,0.592 -97.987,8.571c-6.865,1.747 -15.751,0.521 -21.501,3.359c-3.859,1.905 -37.552,0.871 -44.854,0.871c-16.231,-0 -32.127,2.362 -48.343,2.362c-4.608,0 -16.492,-1.951 -19.089,-0.548c-12.206,6.592 -57.969,7.443 -71.47,7.403c-29.891,-0.089 -60.218,-6.891 -90.027,-4.076c-21.844,2.064 -43.672,4.782 -65.429,6.95c-20.79,2.071 -44.371,-6.761 -64.36,-6.761c-4.234,0 -16.491,-4.203 -17.485,-3.712c-3.586,1.77 -0.926,8.386 -2.146,11.039c-6.515,14.163 -1.797,28.756 -1.797,42.114c0,5.233 2.412,13.86 0,18.247c-3.509,6.381 -5.555,6.292 -10.217,11.682c-3.934,4.548 -8.922,15.75 -12.105,21.539c-6.485,11.794 -2.266,46.78 -3.359,60.633c-0.828,10.485 -17.635,26.573 -13.346,35.151c1.231,2.463 11.646,22.101 14.244,24.7c6.554,6.554 13.724,-7.585 13.724,-12.647l-0,-11.818c-0,-9.846 -0.179,-19.245 -1.032,-29.013c-1.671,-19.158 5.234,-52.762 8.176,-70.337c1.599,-9.547 6.693,-18.059 8.481,-27.527c2.042,-10.821 4.911,-20.679 5.848,-31.701c0.295,-3.472 0.089,-11.052 2.565,-13.025c2.955,-2.353 5.558,-7.487 9.225,-6.582c4.928,1.216 0.619,12.705 2.919,15.024c9.841,9.919 22.772,2.65 34.392,2.65c2.978,-0 15.776,2.994 18.68,1.646c6.369,-2.956 13.147,-0.267 19.708,-1.517c22.894,-4.362 46.463,-4.717 69.152,-11.168c8.553,-2.432 15.848,-3.666 25.108,-5.806c4.229,-0.978 7.995,-6.299 12.084,-4.845c18.973,6.744 69.94,15.325 89.406,13.576c12.792,-1.149 27.977,-5.798 39.855,-10.703c4.457,-1.84 31.178,-5.722 37.322,-6.676c16.343,-2.538 33.771,-4.647 50.357,-3.349c11.096,0.868 22.697,2.535 33.948,1.458c13.662,-1.309 26.768,-3.214 39.458,-6.128c7.504,-1.723 27.069,0.995 36.923,-0.004c28.403,-2.877 53.271,-7.148 81.649,-7.511c1.228,-0.016 -2.456,7.401 -2.758,7.997c-2.685,5.301 -4.629,8.573 -8.39,13.948c-2.404,3.436 0.506,31.116 0.193,36.238c-0.188,3.065 -4.589,5.559 -3.618,8.473c1.258,3.776 8.582,9.981 12.175,11.951l0.545,0.545c-0.098,15.297 4.293,30.902 8.008,45.764c2.36,9.441 -2.727,19.716 1.15,29.145c6.805,16.547 10.348,26.755 1.517,44.338c-0.848,1.688 3.402,6.943 1.853,8.473c-2.317,2.287 -0.828,5.959 -1.783,8.788c-0.577,1.708 -5.143,-0.248 -4.233,3.394c0.62,2.481 5.227,7.432 4.453,9.724c-1.087,3.221 -8.196,4.488 -11.028,5.887c-4.217,2.082 -3.038,-9.076 -3.038,-13.78c0,-5.731 0.936,-9.599 -2.551,-13.59c-0.325,-0.372 -0,-0.988 -0,-1.482c-0,-12.328 3.071,-23.698 0.863,-36.511c-1.262,-7.324 -3.384,-22.804 -6.135,-29.223c-3.115,-7.268 -8.733,-13.953 -9.853,-22.095c-2.63,-19.111 -1.144,-39.358 -1.144,-58.578c0,-3.33 1.662,-21.917 0,-27.531c-0.529,-1.788 -3.885,-0.688 -5.236,-1.975c-6.585,-6.27 -12.361,-12.239 -18.46,-1.912c-4.933,8.355 -1.619,23.798 -1.006,33.145c0.109,1.665 1.495,28.292 2.523,32.361c2.519,9.964 8.294,19.105 11.291,28.996c0.748,2.468 -1.233,20.471 0.776,22.815c3.536,4.126 15.823,12.844 16.46,19.432c1.278,13.199 -0.297,26.865 -5.76,38.671c-3.232,6.982 -0.738,18.117 -2.468,25.639c-0.216,0.937 1.874,7.475 0.36,8.222c-4.295,2.12 -13.057,-0.182 -18.184,0.713c-26.936,4.705 -51.547,-5.822 -78.394,-1.272c-3.477,0.589 -29.233,1.905 -29.233,-2.849c-0,-1.032 -5.347,1.551 -6.058,1.887c-5.559,2.629 -5.137,2.531 -11.378,6.062c-3.27,1.849 -22.892,0.402 -25.531,0.272c-15.67,-0.77 -27.936,8.205 -43.792,10.602c-18.217,2.754 -38.381,6.537 -56.568,5.104c-7.865,-0.62 -19.948,-0.568 -27.405,-2.276c-3.816,-0.874 -6.202,-4.758 -11.298,-5.034c-25.333,-1.371 -50.958,-2.884 -76.454,-6.735c-2.869,-0.434 -13.138,0.198 -16.81,-1.032c-10.409,-3.484 -23.2,-4.951 -34.277,-5.897c-7.742,-0.66 -15.644,1.585 -23.497,0.776c-11.58,-1.192 -21.434,-3.97 -32.634,-7.253c-3.699,-1.084 -8.756,-6.201 -10.927,-6.229c-5.535,-0.07 -29.345,12.995 -37.615,15.891c-4.39,1.537 -46.353,1.297 -57.344,1.297c-0.711,-0 1.357,-0.423 2.02,-0.678c1.304,-0.502 2.594,-1.04 3.891,-1.559c4.691,-1.88 12.923,-2.61 15.429,-7.63c2.642,-5.29 1.134,-13.375 3.771,-19.538c5.752,-13.437 13.675,-25.174 17.985,-39.24c2.555,-8.34 15.855,-40.564 11.944,-48.48c-1.018,-2.06 -4.422,1.615 -6.718,1.542c-2.956,-0.095 -5.78,-4.498 -6.54,-6.942c-7.228,-23.233 -4.373,-50.671 -4.373,-73.959c-0,-0.509 -0.194,1.01 -0.402,1.475c-1.483,3.313 -1.144,3.102 -2.056,6.436c-0.973,3.561 -2.111,7.076 -3.184,10.609c-3.242,10.677 -2.921,28.538 -1.342,38.901c1.064,6.986 2.993,13.731 4.205,20.655c3.131,17.897 -3.226,37.074 -0.402,55.041c0.37,2.354 3.51,7.667 4.443,10.749c1.375,4.546 17.364,16.958 21.148,21.798c1.922,2.459 1.051,9.566 2.75,11.266c0.13,0.129 0.632,-0.381 0.546,-0.553c-0.119,-0.237 -22.443,2.918 -26.035,-0.674c-4.08,-4.08 3.426,-6.714 6.432,-6.68c7.42,0.083 15.043,0.62 22.424,-0c31.995,-2.689 64.628,0.804 96.434,5.289c17.548,2.474 40.266,7.04 58.138,5.264c23.7,-2.356 47.648,-5.566 71.438,-6.795c5.992,-0.31 12.566,-3.103 18.379,-3.178c1.856,-0.024 2.386,2.914 3.929,3.943c0.15,0.1 -16.103,7.916 -8.281,8.606c17.611,1.554 35.024,-1.379 52.087,-0.43c15.331,0.853 46.735,4.682 61.21,2.395c16.713,-2.641 37.441,-5.531 54.363,-3.416c10.95,1.369 23.806,-1.311 34.207,-4.145c4.363,-1.189 12.849,0.711 17.59,0.398c9.961,-0.657 19.636,-3.869 29.774,-3.869c4.43,-0 22.906,1.945 22.033,-6.373c-1.538,-14.64 -10.555,-26.146 -13.825,-40.422c-3.278,-14.308 -1.972,-32.393 -1.972,-47.029c0,-1.362 0,2.735 0,6.708c0,3.49 -0.242,6.988 0,10.469c1.086,15.565 11.27,19.393 11.27,27.755c0,0.315 3.996,8.31 4.216,8.749c0.026,0.054 0.687,0.777 -0.004,0.545c-9.571,-3.204 -8.861,-12.192 -12.514,-19.903c-5.215,-11.008 -11.376,-21.6 -14.968,-33.306c-4.438,-14.466 -6.29,-32.062 -14.635,-45.137c-3.736,-5.853 -14.923,-18.775 -14.71,-26.003c0.369,-12.468 2.175,-21.317 3.797,-32.691c1.187,-8.329 0.241,-18.385 4.505,-26.048c0.357,-0.642 2.353,5.371 2.454,5.635c1.477,3.852 2.65,7.923 4.415,11.79c3.945,8.642 15.363,37.092 15.363,47.347c-0,15.776 8.391,19.443 10.357,31.026c1.058,6.23 1.001,11.827 2.919,17.579c0.302,0.907 -1.242,0.461 -1.65,1.091c-2.854,4.406 -2.465,10.569 -3.087,15.702c-1.758,14.513 -5.698,30.39 -8.347,44.957c-2.717,14.94 -2.756,38.302 -21.361,40.816c-16.642,2.248 -11.399,-10.865 -6.372,-23.235c3.879,-9.548 6.156,-19.512 10.57,-28.873c1.783,-3.781 8.362,-4.55 9.767,-8.34c2.167,-5.852 1.21,-12.852 4.194,-18.537c0.97,-1.848 5.471,-0.026 6.729,-2.559c4.584,-9.226 -2.455,-29.291 -6.25,-37.489c-2.443,-5.279 -6.018,-21.245 -7.68,-15.671c-0.901,3.023 1.177,7.14 -0.402,10.043c-0.856,1.575 -9.727,12.047 -8.917,14.657c6.889,22.189 6.572,37.302 1.248,59.431c-0.966,4.015 -2.188,7.966 -3.261,11.954c-4.304,15.997 -3.489,19.421 -19.89,21.564c-6.964,0.91 -14.25,4.813 -20.91,2.583c-2.97,-0.994 -0.138,-14.819 0.902,-17.802c3.189,-9.147 2.852,-17.877 3.716,-27.531c1.348,-15.076 -2.653,-28.251 -4.306,-43.112c-1.844,-16.579 -0.333,-34.039 -0.333,-50.837c0,-12.941 -1.16,-29.372 0.573,-43.257c0.602,-4.826 0.63,-10.439 -0.922,-15.077c-0.686,-2.049 -1.757,-3.678 -2.273,-5.953c-0.103,-0.456 -0.064,-1.795 -0.276,-1.377c-1.721,3.398 4.429,9.654 5.776,11.386c5.026,6.463 10.371,14.52 11.94,22.703c0.883,4.605 -0.785,9.597 0.636,14.212c4.03,13.093 9.204,24.368 11.444,38.262c2.402,14.898 0,31.78 0,46.959c0,11.254 1.835,21.763 1.835,32.631c0,0.468 0.265,2.146 0,2.293c-11.046,6.148 -26.051,7.731 -35.766,16.548c-2.058,1.868 3.559,5.606 2.216,8.04c-1.673,3.032 -12.063,20.324 -17.935,20.249c-11.868,-0.15 -26.269,2.213 -39.133,2.793c-15.034,0.679 -30.029,-2.785 -44.865,-1.811c-16.754,1.101 -33.389,4.331 -50.101,5.971c-3.477,0.341 -32.929,-2.974 -36.382,-3.269c-15.442,-1.318 -30.001,3.363 -45.791,0.102c-13.127,-2.711 -42.433,4.185 -55.747,5.617c-10.776,1.159 -18.904,-5.219 -29.519,-7.029c-18.313,-3.124 -36.552,-3.452 -54.919,-5.897c-6.182,-0.823 -15.893,-4.986 -22.462,-6.404c-22.007,-4.751 -29.118,2.816 -35.277,-17.422c-0.63,-2.073 -2.714,-3.469 -3.016,-5.649c-0.119,-0.859 11.681,2.442 12.029,2.591c7.264,3.111 16.654,2.632 24.478,3.212c10.876,0.806 21.534,-0.055 32.491,1.332c13.493,1.708 26.748,5.209 40.391,6.274c13.66,1.067 27.347,-0.748 40.929,-1.031c18.532,-0.386 37.019,1.768 55.708,-1.059c3.601,-0.545 8.89,-2.546 12.486,-2.569c4.884,-0.032 11.487,4.951 17.03,5.337c21.556,1.504 43.181,3.875 64.598,5.765c10.72,0.945 24.283,0.779 34.756,-2.122c8.822,-2.444 8.553,-4.587 17.467,-3.318c7.678,1.094 14.534,0.52 22.28,0.937c11.303,0.609 54.603,9.856 60.945,-7.145c1.2,-3.217 -6.201,-2.971 -9.407,-4.201c-3.614,-1.387 -2.97,-5.611 -7.777,-5.611c-13.118,0 -27.025,-4.556 -39.93,-7.221c-12.56,-2.595 -26.797,-0.931 -39.656,-2.398c-16.862,-1.924 -34.296,4.833 -52.007,3.345c-32.282,-2.712 -65.131,-2.635 -97.13,-6.498c-12.694,-1.533 -27.959,1.852 -41.265,1.852c-19.031,0 -37.86,1.926 -56.963,1.926c-5.27,0 -13.994,1.801 -18.121,-0.276c-9.39,-4.725 -38.67,2.773 -52.184,-1.751c-3.707,-1.241 -10.846,0.658 -13.986,-2.482c-1.75,-1.749 1.538,-8.443 0,-10.423c-3.905,-5.027 -4.338,-4.867 -3.67,-11.784c0.592,-6.134 33.521,-0.13 36.088,0.469c19.985,4.66 38.356,-0.238 58.784,2.048c20.31,2.273 41.951,3.052 62.29,3.052c23.153,-0 45.783,-1.496 68.886,-3.181c7.65,-0.558 15.406,-3.056 22.966,-3.153c13.896,-0.178 29.642,1.92 43.914,3.331c8.3,0.82 16.419,4.775 24.826,5.296c7.178,0.444 14.129,-2.635 21.081,-1.797c12.779,1.541 27.814,2.12 40.667,1.947c22.098,-0.298 44.824,-6.715 67.016,-1.951c0.003,0.001 -2.827,-12.748 -5.142,-14.793c-8.047,-7.106 -18.513,-13.66 -27.873,-18.68c-6.494,-3.482 -25.234,2.074 -30.631,2.678c-17.068,1.908 -34.177,2.04 -51.304,2.954c-21.729,1.159 -43.125,-3.11 -64.744,-4.268c-16.482,-0.884 -32.948,0.211 -49.448,-1.21c-3.104,-0.267 -17.203,-3.384 -18.813,-3.394c-8.429,-0.053 -16.647,3.333 -25.003,4.069c-11.899,1.047 -23.872,-0.012 -35.725,-0.713c-21.842,-1.294 -43.928,0.776 -65.817,0.776c-18.401,-0 -36.575,0.412 -54.953,-0.27c-0.651,-0.024 -23.911,1.54 -24.462,0.99c-4.903,-4.904 -0.042,-22.486 -0.042,-29.73c0,-4.162 -3.465,-9.009 -1.104,-12.437c0.52,-0.755 11.046,-13.387 11.944,-13.43c16.687,-0.797 31.22,7.647 47.595,8.515c41.688,2.212 83.786,2.284 125.402,-0.342c8.457,-0.534 16.925,-0.875 25.391,-1.21c4.326,-0.17 13.881,2.345 17.447,0c4.469,-2.939 -9.382,-8.502 -17.611,-11.846c-6.357,-2.584 -12.269,1.422 -17.603,3.23c-12.901,4.372 -29.852,2.267 -42.999,4.142c-16.954,2.418 -23.848,1.164 -40.202,1.164c-2.203,0 -11.14,-2.256 -12.091,-1.318c-1.261,1.245 -0.729,4.462 -3.188,5.929c-11.34,6.766 -21.56,9.345 -34.371,10c-7.567,0.388 -15.747,-1.333 -23.256,-1.856c-2.153,-0.149 -23.559,5.826 -27.597,6.177c-4.228,0.368 -22.85,4.964 -26.535,8.602c-2.504,2.474 6.899,1.404 10.358,2.059c4.415,0.837 8.874,1.42 13.297,2.216c12.523,2.255 18.835,3.419 31.257,3.014c16.465,-0.537 33.024,-1.739 49.688,-2.839c20.121,-1.328 37.433,-6.652 57.858,-5.198c31.043,2.211 50.631,-0.689 80.925,1.122c7.346,0.44 14.985,2.267 22.41,1.885c15.49,-0.798 31.654,-4.556 47.123,-2.143c28.015,4.37 58.002,3.495 86.48,3.495c5.676,0 18.537,0.642 24.035,-2.142c0.33,-0.167 5.148,2.523 8.176,2.523c9.711,0 18.088,-1.347 27.796,-1.961c4.153,-0.262 23.265,1.717 25.248,-0.279c1.825,-1.836 -1.533,-6.749 -3.229,-7.316c-5.809,-1.945 -12.121,-1.192 -18.02,-3.381c-5.463,-2.027 -10.514,-8.527 -16.355,-9.846c-14.254,-3.22 -37.236,-1.69 -51.437,-1.182c-6.705,0.24 -34.21,3.97 -43.414,2.401c-21.738,-3.703 -44.01,-5.595 -65.947,-9.001c-21.329,-3.311 -44.315,-10.354 -66.226,-7.372c-1.493,0.204 0.877,1.195 9.668,3.423c9.75,2.47 9.533,2.901 22.298,2.901c20.028,-0 39.826,0.083 59.77,-1.087c13.146,-0.771 26.549,-4.457 39.755,-4.317c19.016,0.201 36.91,1.913 55.865,0.93c13.165,-0.683 23.093,-7.096 35.83,-9.48c1.756,-0.329 10.699,1.57 12.486,1.74c11.598,1.107 24.242,-1.709 35.353,-1.709c0.775,0 -1.538,-0.183 -2.307,-0.276c-2.2,-0.266 -4.375,-0.738 -6.582,-0.94c-5.274,-0.483 -10.565,-0.754 -15.849,-1.112c-8.626,-0.585 -17.816,0.3 -26.632,-0.217c-26.263,-1.54 -52.973,3.732 -79.387,4.681c-9.741,0.35 -18.042,-3.062 -27.513,-3.062c-0.492,-0 0.983,-0 1.475,-0c2.501,-0 5.145,0.222 7.634,-0c4.881,-0.436 10.325,-2.673 14.758,-4.53c13.6,-5.697 26,-12.382 26,-28.824c0,-0.554 0.216,-10.352 0,-10.749c-9.666,-17.82 -13.445,-37.822 -22.385,-55.831c-4.468,-9 -12.873,-19.419 -14.853,-29.45c-1.66,-8.41 3.422,-18.163 -0.122,-26.594c-1.096,-2.606 -6.417,-12.451 -7.994,-14.845c-1.106,-1.678 -5.665,-5.024 -5.681,-6.278c-0.009,-0.761 2.697,-1.497 2.692,-3.111c-0.009,-2.902 -5.087,-9.96 -6.135,-12.689c-1.811,-4.718 1.882,-10.118 2.846,-14.363c0.162,-0.716 -1.004,-10.141 -0,-11.158c1.389,-1.406 5.894,-1.752 6.183,-3.46c0.236,-1.388 2.546,-5.328 0.661,-6.858c-1.943,-1.578 -7.694,-5.393 -5.191,-5.425c0.86,-0.011 -0.276,1.705 -0.276,2.565c-0,1.314 -0.347,5.595 -0,7.638c1.203,7.087 0.636,14.777 0.636,21.994c0,12.203 0.892,24.698 -0.993,36.78c-2.405,15.424 -26.128,45.189 -35.032,55.753c-4.377,5.194 -9.423,8.911 -11.899,15.489c-0.218,0.58 -1.391,11.189 -3.471,9.109" style="stroke:#000;stroke-width:38px;"/><path d="M199.622,327.95c13.429,13.428 10.152,15.432 19.726,31.789c0.619,1.058 5.925,9.402 3.883,9.402"/></svg>